<?xml version="1.0" standalone="no"?>
<!DOCTYPE svg PUBLIC "-//W3C//DTD SVG 20010904//EN"
 "http://www.w3.org/TR/2001/REC-SVG-20010904/DTD/svg10.dtd">
<svg version="1.0" xmlns="http://www.w3.org/2000/svg"
 width="1024.000000pt" height="1024.000000pt" viewBox="0 0 1024.000000 1024.000000"
 preserveAspectRatio="xMidYMid meet">

<g transform="translate(0.000000,1024.000000) scale(0.100000,-0.100000)"
fill="#000000" stroke="none">
<path d="M3113 8343 c-29 -2 -53 -8 -53 -14 0 -5 -7 -9 -15 -9 -8 0 -15 -4
-15 -10 0 -5 -7 -10 -16 -10 -8 0 -22 -6 -30 -14 -16 -17 -19 -66 -4 -66 6 0
10 -7 10 -16 0 -23 24 -43 59 -50 17 -4 33 -14 36 -25 4 -10 18 -22 33 -26 26
-6 42 -19 42 -35 0 -5 -27 -8 -60 -8 -33 0 -60 4 -60 10 0 6 -18 10 -40 10
-22 0 -40 5 -40 10 0 6 -42 10 -105 10 -63 0 -105 -4 -105 -10 0 -6 -27 -10
-60 -10 -33 0 -60 -4 -60 -10 0 -5 -22 -10 -50 -10 -27 0 -50 -4 -50 -9 0 -4
-30 -11 -67 -14 -38 -4 -69 -11 -71 -17 -2 -5 -10 -10 -18 -10 -8 0 -14 -4
-14 -10 0 -5 -13 -10 -30 -10 -16 0 -30 -4 -30 -10 0 -5 -11 -10 -25 -10 -14
0 -28 -7 -31 -15 -4 -8 -15 -15 -25 -15 -10 0 -19 -4 -19 -9 0 -4 -16 -11 -35
-14 -21 -4 -47 -18 -63 -35 -15 -16 -37 -32 -50 -36 -12 -4 -22 -12 -22 -17 0
-5 -5 -9 -11 -9 -6 0 -17 -6 -24 -12 -32 -29 -45 -38 -52 -38 -5 0 -15 -9 -23
-20 -8 -11 -20 -20 -27 -20 -7 0 -13 -5 -13 -11 0 -16 -26 -39 -44 -39 -9 0
-16 -6 -16 -13 0 -20 -35 -57 -53 -57 -8 0 -18 -11 -21 -24 -3 -14 -15 -28
-26 -31 -13 -4 -23 -18 -27 -36 -3 -16 -9 -29 -14 -29 -13 0 -59 -49 -59 -63
0 -7 -9 -19 -20 -27 -11 -8 -23 -29 -26 -47 -3 -18 -10 -33 -15 -33 -5 0 -9
-6 -9 -13 0 -7 -9 -19 -20 -27 -11 -8 -23 -29 -26 -47 -3 -18 -10 -33 -15 -33
-5 0 -9 -7 -9 -15 0 -8 -4 -15 -9 -15 -5 0 -12 -16 -15 -35 -4 -19 -11 -35
-16 -35 -6 0 -10 -16 -10 -35 0 -19 -4 -35 -10 -35 -5 0 -10 -7 -10 -15 0 -8
-4 -15 -9 -15 -12 0 -25 -122 -17 -155 8 -32 53 -46 71 -21 15 20 25 21 25 1
0 -8 -4 -15 -9 -15 -4 0 -11 -27 -15 -60 -4 -33 -11 -60 -16 -60 -6 0 -10 -25
-10 -55 0 -30 -4 -55 -10 -55 -5 0 -10 -18 -10 -40 0 -22 -4 -40 -10 -40 -6 0
-10 -45 -10 -115 0 -70 4 -115 10 -115 6 0 10 -18 10 -40 0 -22 5 -40 10 -40
6 0 10 -20 10 -45 0 -25 5 -45 10 -45 6 0 10 -12 10 -27 0 -62 12 -103 30
-103 11 0 20 -10 24 -30 4 -21 11 -30 26 -30 11 0 20 5 20 10 0 6 6 10 13 10
9 0 12 -40 14 -162 1 -106 5 -164 12 -166 6 -2 11 -15 11 -28 0 -13 4 -24 9
-24 5 0 12 -22 16 -48 4 -31 13 -54 26 -63 10 -7 19 -22 19 -32 0 -10 7 -25
15 -33 8 -9 15 -26 15 -40 0 -17 6 -24 20 -24 14 0 21 -9 25 -34 5 -27 13 -35
34 -39 51 -11 101 13 101 48 0 8 7 18 15 21 8 4 15 15 15 25 0 32 17 21 24
-16 4 -19 11 -35 16 -35 6 0 10 -11 10 -25 0 -14 5 -25 10 -25 6 0 10 -9 10
-20 0 -11 5 -20 10 -20 6 0 10 -11 10 -25 0 -16 6 -25 15 -25 8 0 15 -7 15
-15 0 -8 5 -15 10 -15 6 0 10 -9 10 -20 0 -10 6 -24 13 -30 6 -6 21 -18 33
-28 12 -9 24 -27 28 -39 4 -13 15 -23 26 -23 10 0 21 -9 25 -19 3 -11 15 -23
26 -26 10 -4 19 -11 19 -16 0 -5 5 -9 11 -9 6 0 17 -6 24 -12 36 -32 46 -38
65 -38 11 0 20 -4 20 -10 0 -5 7 -10 15 -10 8 0 15 5 15 10 0 6 5 10 10 10 6
0 10 -102 10 -285 0 -157 4 -285 9 -285 4 0 11 -33 14 -72 4 -40 11 -74 17
-76 5 -2 10 -19 10 -38 0 -19 5 -34 10 -34 6 0 10 -11 10 -25 0 -14 4 -25 9
-25 5 0 11 -10 13 -22 3 -20 8 -23 41 -21 33 2 37 0 37 -22 0 -14 5 -25 10
-25 6 0 10 -18 10 -40 0 -22 4 -40 9 -40 6 0 13 -20 17 -45 3 -25 10 -45 15
-45 5 0 9 -11 9 -25 0 -14 5 -25 10 -25 6 0 10 -11 10 -24 0 -14 7 -31 15 -40
8 -8 15 -22 15 -30 0 -9 5 -16 10 -16 6 0 10 -7 10 -15 0 -8 4 -15 10 -15 5 0
12 -11 16 -25 3 -14 10 -25 15 -25 5 0 9 -9 9 -19 0 -11 9 -22 19 -26 11 -3
23 -15 26 -26 4 -10 11 -19 16 -19 5 0 9 -5 9 -10 0 -11 15 -32 38 -53 7 -7
30 -29 52 -49 31 -31 46 -38 78 -38 50 0 52 6 52 126 0 56 4 94 10 94 6 0 10
-4 10 -10 0 -5 7 -10 15 -10 8 0 15 -5 15 -11 0 -15 26 -39 43 -39 8 0 18 -11
21 -25 4 -14 11 -25 16 -25 6 0 10 -27 10 -59 0 -33 5 -61 10 -63 6 -2 13 -33
17 -71 3 -37 10 -67 14 -67 5 0 9 -16 9 -36 0 -23 7 -43 19 -53 11 -10 21 -37
25 -74 4 -31 12 -57 17 -57 5 0 9 -5 9 -11 0 -6 7 -17 15 -25 8 -9 15 -26 15
-40 0 -13 5 -24 10 -24 6 0 10 -9 10 -19 0 -11 8 -22 19 -26 10 -3 21 -19 25
-36 3 -16 17 -41 31 -55 14 -14 25 -30 25 -35 0 -6 13 -23 29 -38 15 -14 31
-36 35 -49 4 -12 12 -22 17 -22 5 0 9 -7 9 -15 0 -8 5 -15 11 -15 14 0 39 -25
39 -39 0 -6 9 -11 19 -11 11 0 23 -9 27 -22 7 -22 28 -48 39 -48 3 0 17 -11
31 -25 14 -14 29 -25 35 -25 5 0 21 -11 35 -25 14 -14 31 -25 39 -25 8 0 15
-4 15 -10 0 -15 39 -12 56 4 16 16 19 56 4 56 -5 0 -12 27 -16 60 -4 33 -11
60 -15 60 -5 0 -9 6 -9 14 0 8 -4 16 -8 18 -5 2 -12 33 -15 71 l-6 67 24 -24
c13 -13 27 -36 31 -50 4 -17 13 -26 25 -26 12 0 19 -7 19 -20 0 -11 4 -20 9
-20 5 0 12 -11 15 -25 4 -16 13 -25 26 -25 11 0 20 -7 20 -15 0 -18 206 -225
225 -225 7 0 17 -9 20 -20 3 -11 15 -20 25 -20 10 0 25 -7 34 -15 8 -8 17 -15
21 -15 4 0 13 -7 21 -15 9 -8 26 -15 40 -15 13 0 24 -4 24 -10 0 -5 5 -10 11
-10 7 0 20 -9 30 -21 10 -12 35 -23 58 -26 23 -3 41 -10 41 -14 0 -5 6 -9 14
-9 8 0 16 -5 18 -11 2 -6 25 -13 51 -16 26 -3 47 -10 47 -14 0 -5 16 -9 35 -9
19 0 35 -4 35 -10 0 -5 9 -10 19 -10 11 0 21 -5 23 -10 2 -6 66 -13 158 -17
95 -4 158 -10 163 -17 5 -8 9 -8 15 0 4 7 70 13 172 17 101 4 166 10 168 16 2
6 12 11 23 11 10 0 19 5 19 10 0 6 16 10 35 10 19 0 35 4 35 9 0 4 21 11 47
14 26 3 49 10 51 16 2 6 10 11 18 11 8 0 14 4 14 9 0 4 18 11 41 14 23 3 48
14 58 26 10 12 23 21 30 21 6 0 11 5 11 10 0 6 11 10 24 10 14 0 31 7 40 15 8
8 17 15 21 15 4 0 13 7 21 15 9 8 24 15 34 15 10 0 22 9 25 20 3 11 13 20 21
20 8 0 36 22 63 50 27 27 56 50 64 50 9 0 19 9 22 20 3 11 11 20 16 20 5 0 9
5 9 10 0 6 23 33 50 61 28 27 50 55 50 60 0 6 13 23 29 38 15 14 31 36 35 49
4 12 12 22 17 22 5 0 9 5 9 11 0 6 7 17 15 26 14 14 15 8 9 -53 -4 -38 -11
-70 -15 -72 -5 -2 -9 -14 -9 -27 0 -13 -5 -25 -11 -27 -6 -2 -13 -41 -16 -86
l-6 -82 27 0 c14 0 26 5 26 10 0 6 7 10 15 10 8 0 15 7 15 15 0 8 9 15 20 15
11 0 20 5 20 10 0 6 7 10 15 10 8 0 25 11 39 25 14 14 28 25 31 25 11 0 32 26
39 48 4 13 16 22 27 22 10 0 19 5 19 11 0 14 25 39 39 39 6 0 11 7 11 15 0 8
4 15 9 15 5 0 12 9 16 19 3 11 15 23 26 26 10 4 19 13 19 22 0 9 11 26 25 39
14 13 25 30 25 39 0 8 4 15 10 15 5 0 12 16 16 35 4 25 11 35 25 35 14 0 19 7
19 25 0 14 4 25 9 25 5 0 12 11 15 25 4 14 11 25 16 25 6 0 10 11 10 25 0 14
4 25 9 25 5 0 12 22 16 48 4 31 13 54 26 63 12 8 19 25 19 46 0 18 4 33 9 33
4 0 11 33 15 73 4 39 11 74 16 75 6 2 10 35 10 73 0 38 4 69 10 69 5 0 12 11
16 25 3 14 13 25 21 25 17 0 43 24 43 39 0 6 7 11 15 11 8 0 15 5 15 10 0 6 5
10 10 10 6 0 10 -36 10 -87 0 -125 4 -133 53 -133 30 0 46 6 63 25 13 14 30
25 39 25 8 0 15 5 15 10 0 11 10 25 48 65 12 13 22 29 22 35 0 5 7 10 15 10 8
0 15 6 15 13 0 7 9 19 20 27 11 8 20 25 20 37 0 14 6 23 15 23 9 0 15 9 15 21
0 12 8 29 19 38 10 9 22 31 25 49 4 17 12 32 17 32 5 0 9 11 9 25 0 14 4 25 9
25 5 0 12 20 15 45 4 25 11 45 17 45 5 0 9 18 9 40 0 22 5 40 10 40 6 0 10 16
10 36 0 34 1 35 30 29 49 -11 70 1 70 41 0 19 5 34 10 34 6 0 10 20 10 44 0
25 5 46 12 48 6 2 13 31 16 66 2 34 8 62 13 62 5 0 9 41 9 90 0 53 4 90 10 90
6 0 10 55 10 145 0 90 -4 145 -10 145 -6 0 -10 30 -10 70 0 68 12 91 25 50 7
-21 25 -28 25 -10 0 6 9 10 21 10 11 0 27 6 34 13 31 27 44 37 50 37 4 0 13 6
20 13 30 26 44 37 50 37 12 0 65 61 65 75 0 7 9 16 19 20 11 3 23 15 26 26 4
10 11 19 16 19 5 0 9 5 9 11 0 6 7 17 15 25 8 9 15 24 15 35 0 10 5 19 10 19
6 0 10 7 10 15 0 8 5 15 10 15 6 0 10 16 10 35 0 19 5 35 10 35 6 0 10 6 10
13 0 6 4 18 9 26 7 10 12 10 30 -5 11 -10 21 -25 21 -32 0 -20 23 -39 57 -46
25 -6 36 -2 57 19 14 14 26 32 26 40 0 8 9 15 20 15 15 0 20 7 20 24 0 14 7
31 15 40 8 8 15 23 15 33 0 10 9 25 19 32 13 9 22 32 26 63 4 26 11 48 16 48
5 0 9 11 9 24 0 13 5 26 11 28 6 2 11 61 12 166 2 122 5 162 15 162 6 0 12 -4
12 -10 0 -5 9 -10 20 -10 11 0 20 4 20 10 0 5 11 20 24 33 19 19 27 40 32 86
3 34 11 61 15 61 5 0 9 25 9 55 0 30 5 55 10 55 6 0 10 11 10 25 0 14 5 25 10
25 6 0 10 48 10 125 0 77 -4 125 -10 125 -5 0 -10 16 -10 35 0 19 -4 35 -10
35 -5 0 -10 25 -10 55 0 30 -4 55 -10 55 -5 0 -12 27 -16 60 -4 33 -11 60 -15
60 -5 0 -9 7 -9 15 0 8 4 15 9 15 5 0 11 -7 15 -15 7 -20 41 -19 62 2 14 14
16 30 11 97 -3 44 -10 82 -16 84 -6 2 -11 12 -11 23 0 10 -4 19 -10 19 -5 0
-10 11 -10 25 0 14 -4 25 -10 25 -5 0 -12 17 -16 38 -4 20 -15 44 -24 52 -10
8 -20 29 -24 46 -4 16 -16 36 -26 44 -11 8 -20 25 -20 37 0 13 -4 23 -10 23
-5 0 -10 7 -10 15 0 8 -11 25 -25 39 -14 14 -25 30 -25 35 0 6 -11 21 -25 35
-14 14 -25 30 -25 36 0 5 -4 10 -10 10 -5 0 -12 11 -16 25 -4 16 -13 25 -25
25 -12 0 -21 9 -25 25 -3 14 -13 25 -21 25 -18 0 -53 37 -53 57 0 7 -7 13 -16
13 -18 0 -44 23 -44 39 0 6 -6 11 -13 11 -7 0 -19 9 -27 20 -8 11 -18 20 -23
20 -5 0 -15 6 -22 13 -33 29 -45 37 -55 37 -5 0 -10 7 -10 15 0 8 -7 15 -15
15 -8 0 -15 5 -15 10 0 6 -8 10 -18 10 -10 0 -24 9 -32 20 -8 12 -31 23 -52
27 -21 3 -38 9 -38 14 0 5 -9 9 -19 9 -10 0 -21 7 -25 15 -3 8 -15 15 -26 15
-11 0 -20 5 -20 10 0 6 -11 10 -25 10 -14 0 -25 5 -25 10 0 6 -7 10 -15 10 -8
0 -15 4 -15 9 0 5 -36 13 -80 17 -44 3 -80 11 -80 15 0 5 -22 9 -50 9 -27 0
-50 5 -50 10 0 6 -27 10 -60 10 -33 0 -60 4 -60 10 0 6 -35 10 -85 10 -50 0
-85 -4 -85 -10 0 -5 -25 -10 -55 -10 -30 0 -55 -4 -55 -10 0 -6 -27 -10 -60
-10 -33 0 -60 -4 -60 -10 0 -5 -7 -10 -15 -10 -8 0 -15 5 -15 10 0 6 4 10 9
10 5 0 12 8 16 19 3 10 18 21 34 24 17 4 32 15 35 25 4 11 19 22 37 26 36 7
76 45 85 81 7 29 -21 65 -51 65 -8 0 -15 5 -15 10 0 6 -6 10 -14 10 -8 0 -16
6 -18 13 -4 9 -65 12 -263 12 -198 0 -259 -3 -262 -12 -3 -7 -13 -13 -24 -13
-10 0 -19 -4 -19 -10 0 -5 -11 -10 -25 -10 -14 0 -25 -4 -25 -9 0 -5 -18 -11
-40 -15 -22 -3 -40 -11 -40 -16 0 -6 -9 -10 -20 -10 -11 0 -20 -4 -20 -10 0
-5 -16 -12 -35 -16 -21 -4 -37 -13 -40 -25 -4 -10 -13 -19 -21 -19 -9 0 -33
-18 -55 -40 -22 -22 -44 -40 -50 -40 -13 0 -59 -46 -59 -59 0 -6 -22 -33 -50
-61 -27 -28 -50 -53 -50 -56 0 -3 -7 -12 -15 -20 -8 -9 -15 -24 -15 -34 0 -10
-9 -21 -19 -25 -13 -4 -22 -19 -26 -48 -4 -23 -16 -49 -26 -58 -11 -9 -19 -21
-19 -28 0 -6 -4 -11 -9 -11 -5 0 -12 -20 -15 -45 -4 -25 -11 -45 -17 -45 -5 0
-9 -18 -9 -40 0 -29 -4 -40 -15 -40 -8 0 -15 4 -15 9 0 6 -31 13 -70 17 -38 3
-70 11 -70 15 0 5 -20 9 -45 9 -33 0 -45 4 -45 15 0 8 5 15 10 15 6 0 10 9 10
20 0 11 4 20 9 20 5 0 12 11 15 25 4 14 11 25 16 25 6 0 10 10 10 23 0 12 9
29 20 37 12 8 23 31 27 52 3 21 9 38 14 38 5 0 9 20 9 45 0 25 -4 45 -10 45
-5 0 -10 7 -10 15 0 8 -7 15 -15 15 -8 0 -15 5 -15 10 0 6 -62 10 -165 10 -91
0 -165 -4 -165 -9 0 -4 -26 -11 -57 -14 -32 -3 -59 -11 -61 -17 -2 -5 -14 -10
-27 -10 -13 0 -25 -4 -27 -8 -1 -5 -18 -12 -35 -15 -25 -5 -33 -3 -33 8 0 8
-7 15 -15 15 -8 0 -15 6 -15 13 0 7 -9 19 -20 27 -11 8 -20 21 -20 28 0 18
-121 138 -149 147 -11 3 -21 11 -21 16 0 5 -5 9 -11 9 -7 0 -20 10 -30 22 -14
15 -34 23 -74 26 -84 7 -105 -2 -105 -43 0 -19 -4 -35 -10 -35 -6 0 -10 -36
-10 -89 0 -56 -4 -91 -11 -93 -6 -2 -13 -25 -16 -51 -3 -26 -10 -47 -14 -47
-5 0 -9 -10 -9 -23 0 -12 -9 -29 -20 -37 -11 -8 -20 -24 -20 -36 0 -13 -7 -29
-15 -38 -8 -8 -15 -19 -15 -25 0 -6 -4 -11 -9 -11 -5 0 -13 -10 -17 -22 -9
-28 -28 -48 -48 -48 -9 0 -18 -11 -22 -25 -4 -16 -13 -25 -25 -25 -10 0 -19
-4 -19 -9 0 -5 -11 -12 -25 -15 -14 -4 -25 -11 -25 -16 0 -6 -11 -10 -25 -10
-22 0 -25 4 -25 40 0 22 -4 40 -9 40 -6 0 -13 20 -17 45 -3 25 -10 45 -15 45
-5 0 -9 10 -9 23 0 12 -9 29 -20 37 -11 8 -23 29 -26 47 -3 18 -14 35 -24 38
-10 3 -20 19 -24 36 -3 17 -22 46 -41 63 -19 18 -35 38 -35 44 0 15 -107 122
-121 122 -6 0 -25 16 -43 35 -19 19 -40 35 -49 35 -9 0 -18 8 -22 19 -3 11
-19 21 -37 25 -17 3 -39 15 -49 27 -10 12 -35 23 -58 26 -23 3 -41 10 -41 14
0 5 -13 9 -30 9 -16 0 -30 5 -30 10 0 6 -9 10 -19 10 -11 0 -21 6 -23 12 -3 9
-58 13 -214 14 -115 1 -233 -1 -261 -3z m337 -222 c0 -4 26 -11 58 -15 41 -5
62 -12 72 -26 8 -11 25 -20 37 -20 13 0 23 -4 23 -10 0 -5 11 -10 25 -10 13 0
35 -11 49 -25 14 -14 30 -25 36 -25 5 0 10 -4 10 -10 0 -5 9 -10 20 -10 11 0
20 -7 20 -15 0 -8 5 -15 10 -15 11 0 31 -15 53 -38 48 -52 59 -62 66 -62 5 0
12 -16 15 -35 5 -26 12 -35 26 -35 16 0 21 -10 26 -50 4 -27 10 -50 15 -50 5
0 9 -25 9 -55 0 -43 -3 -55 -16 -55 -11 0 -14 6 -9 20 5 14 2 20 -9 20 -9 0
-16 -4 -16 -10 0 -5 -4 -10 -10 -10 -14 0 -12 28 3 33 6 2 8 8 4 13 -4 5 -13
2 -18 -6 -12 -18 -4 -83 11 -88 13 -5 13 -22 1 -22 -5 0 -13 10 -17 22 -9 28
-28 48 -47 48 -8 0 -18 11 -21 25 -4 16 -13 25 -26 25 -21 0 -23 4 -24 59 -1
19 -5 36 -11 37 -15 5 -41 -14 -31 -23 5 -4 11 -2 13 5 7 19 23 14 23 -8 0
-28 -31 -25 -54 5 -10 14 -27 25 -37 25 -11 0 -19 5 -19 10 0 6 -7 10 -15 10
-8 0 -15 5 -15 10 0 6 -7 10 -15 10 -19 0 -55 36 -55 55 0 8 -4 15 -10 15 -5
0 -10 11 -10 25 0 14 -4 25 -9 25 -5 0 -12 11 -15 25 -4 14 -11 25 -16 25 -6
0 -10 7 -10 15 0 8 -4 15 -9 15 -5 0 -11 14 -15 31 -3 17 -19 43 -36 59 -16
15 -30 33 -30 39 0 6 -7 11 -15 11 -8 0 -15 5 -15 10 0 6 7 10 15 10 8 0 15
-4 15 -9z m3370 4 c0 -3 -11 -16 -25 -29 -14 -13 -25 -31 -25 -40 0 -9 -8 -16
-20 -16 -14 0 -21 -9 -26 -35 -3 -19 -10 -35 -15 -35 -5 0 -9 -11 -9 -25 0
-16 -6 -25 -15 -25 -9 0 -15 -9 -15 -25 0 -14 -4 -25 -10 -25 -5 0 -10 -11
-10 -25 0 -18 -5 -25 -19 -25 -12 0 -21 -9 -25 -25 -4 -16 -13 -25 -26 -25
-11 0 -20 -6 -21 -12 0 -10 -2 -10 -6 0 -8 19 -23 14 -23 -8 0 -22 -35 -28
-44 -7 -3 6 -3 0 0 -15 5 -21 2 -28 -10 -28 -9 0 -16 -4 -16 -9 0 -5 -9 -12
-19 -16 -11 -3 -23 -15 -26 -26 -4 -10 -15 -19 -25 -19 -13 0 -22 -9 -26 -25
-3 -14 -13 -25 -21 -25 -17 0 -43 -24 -43 -39 0 -5 -11 -21 -24 -34 -13 -13
-27 -33 -30 -45 -6 -17 -15 -22 -42 -22 -19 0 -34 4 -34 9 0 18 32 41 56 41
17 0 24 5 24 20 0 11 5 20 10 20 6 0 10 7 10 15 0 10 -11 15 -35 15 -28 0 -35
4 -35 20 0 11 5 20 10 20 6 0 10 11 10 25 0 14 5 25 10 25 6 0 10 13 10 29 0
56 12 91 31 91 13 0 20 10 25 35 3 19 10 35 15 35 7 0 18 10 66 62 22 23 42
38 53 38 5 0 10 7 10 15 0 8 9 15 20 15 11 0 20 5 20 10 0 6 6 10 13 10 7 0
19 9 27 20 8 11 29 23 47 26 18 3 33 10 33 15 0 5 10 9 21 9 12 0 29 9 39 20
12 14 35 22 79 26 33 4 61 11 61 15 0 5 5 9 10 9 6 0 10 -2 10 -5z m-1910
-172 c22 -21 46 -44 54 -51 9 -7 16 -22 16 -32 0 -11 5 -20 10 -20 6 0 10 -7
10 -15 0 -8 5 -15 10 -15 6 0 10 -11 10 -24 0 -14 7 -31 15 -40 8 -8 15 -24
15 -35 0 -12 5 -21 10 -21 6 0 10 -20 10 -45 0 -33 4 -45 15 -45 8 0 15 5 15
10 0 6 9 10 20 10 11 0 20 5 20 10 0 6 7 10 15 10 8 0 15 4 15 10 0 5 11 12
25 16 14 3 25 10 25 15 0 5 9 9 20 9 11 0 20 4 20 10 0 5 18 13 40 16 22 4 40
10 40 15 0 5 16 9 35 9 19 0 35 5 35 10 0 6 11 10 25 10 14 0 25 -4 25 -10 0
-9 -3 -12 -49 -50 -13 -11 -21 -23 -17 -27 4 -4 11 -1 16 7 5 8 13 11 17 6 4
-5 2 -11 -4 -13 -7 -3 -13 -14 -13 -25 0 -10 -7 -26 -15 -34 -8 -9 -15 -26
-15 -40 0 -13 -4 -24 -10 -24 -5 0 -10 -7 -10 -15 0 -8 -4 -15 -9 -15 -5 0
-12 -9 -16 -19 -3 -11 -15 -23 -26 -26 -10 -4 -19 -15 -19 -26 0 -10 -7 -19
-15 -19 -8 0 -15 -7 -15 -15 0 -9 9 -15 25 -15 14 0 25 -4 25 -10 0 -6 35 -10
84 -10 58 0 86 -4 90 -12 5 -10 7 -10 12 0 6 14 74 17 74 3 0 -5 32 -11 72
-13 44 -2 73 -9 76 -16 2 -7 22 -12 48 -12 24 0 44 -4 44 -10 0 -5 16 -10 35
-10 22 0 38 -6 41 -15 4 -9 19 -15 40 -15 19 0 34 -4 34 -10 0 -5 11 -10 25
-10 14 0 25 -4 25 -9 0 -5 16 -12 35 -15 19 -4 35 -11 35 -16 0 -6 11 -10 25
-10 14 0 25 -4 25 -10 0 -5 9 -10 19 -10 10 0 21 -7 25 -15 3 -9 18 -15 36
-15 16 0 30 -4 30 -10 0 -5 7 -10 15 -10 8 0 15 -4 15 -10 0 -5 11 -12 25 -16
14 -3 25 -10 25 -15 0 -5 9 -9 19 -9 11 0 23 -9 26 -20 4 -11 15 -20 26 -20
11 0 22 -7 25 -15 4 -8 13 -15 21 -15 9 0 26 -11 39 -25 13 -14 29 -25 36 -25
7 0 22 -11 32 -25 10 -14 27 -25 37 -25 10 0 21 -9 24 -20 3 -11 10 -20 15
-20 5 0 20 -11 34 -25 14 -14 28 -25 31 -25 4 0 24 -17 45 -37 98 -95 120
-120 120 -137 0 -9 4 -16 8 -16 16 0 52 -37 52 -53 0 -8 11 -18 24 -21 16 -4
25 -15 29 -35 4 -18 14 -32 27 -36 11 -3 20 -13 20 -21 0 -8 11 -25 25 -38 14
-13 25 -31 25 -40 0 -9 4 -16 9 -16 5 0 12 -13 16 -28 3 -15 15 -34 25 -42 11
-8 20 -22 20 -31 0 -9 7 -19 15 -23 8 -3 15 -14 15 -25 0 -11 9 -22 20 -26 14
-4 20 -15 20 -36 0 -17 6 -32 15 -35 8 -4 15 -15 15 -25 0 -10 5 -19 10 -19 6
0 10 -11 10 -25 0 -14 4 -25 9 -25 5 0 12 -11 15 -25 4 -14 11 -25 16 -25 6 0
10 -7 10 -15 0 -8 5 -15 10 -15 6 0 10 -9 10 -19 0 -11 7 -26 15 -35 8 -8 15
-24 15 -35 0 -12 5 -21 10 -21 6 0 10 -7 10 -15 0 -8 5 -15 10 -15 6 0 10 -11
10 -24 0 -14 7 -31 15 -40 8 -8 15 -24 15 -35 0 -12 5 -21 10 -21 6 0 10 -11
10 -24 0 -14 7 -31 15 -40 8 -8 15 -28 15 -45 0 -17 5 -31 10 -31 6 0 10 -11
10 -25 0 -14 4 -25 9 -25 4 0 11 -27 15 -60 4 -33 11 -60 16 -60 6 0 10 -16
10 -35 0 -19 5 -35 10 -35 6 0 10 -22 10 -49 0 -27 5 -51 11 -53 7 -2 13 -42
17 -96 2 -51 9 -92 13 -92 5 0 9 -38 9 -85 0 -50 4 -85 10 -85 6 0 10 -90 10
-250 0 -160 -4 -250 -10 -250 -5 0 -10 -9 -10 -20 0 -11 -4 -20 -10 -20 -5 0
-10 9 -10 20 0 11 -7 23 -15 26 -8 4 -15 19 -15 34 0 20 -6 31 -20 35 -13 4
-23 18 -27 36 -3 16 -9 29 -14 29 -5 0 -9 5 -9 10 0 15 -81 93 -88 84 -4 -3
-1 -9 6 -11 6 -3 12 -20 12 -39 0 -19 5 -34 10 -34 6 0 10 -43 10 -110 0 -67
-4 -110 -10 -110 -5 0 -10 -21 -10 -46 0 -27 -6 -51 -15 -60 -8 -9 -15 -31
-15 -50 0 -19 -4 -34 -10 -34 -5 0 -10 -7 -10 -15 0 -8 -4 -15 -10 -15 -5 0
-10 -13 -10 -29 0 -16 -6 -31 -15 -35 -8 -3 -15 -15 -15 -26 0 -11 -4 -20 -10
-20 -5 0 -10 -7 -10 -15 0 -8 -4 -15 -10 -15 -5 0 -12 -11 -16 -25 -3 -14 -10
-25 -15 -25 -5 0 -9 -9 -9 -19 0 -11 -9 -23 -20 -26 -12 -4 -23 -18 -27 -36
-3 -15 -14 -31 -24 -34 -10 -3 -21 -15 -24 -26 -4 -10 -11 -19 -16 -19 -5 0
-9 -5 -9 -10 0 -9 -51 -67 -111 -125 -5 -5 -23 -22 -38 -37 -16 -16 -36 -28
-45 -28 -9 0 -16 -4 -16 -10 0 -12 -48 -60 -60 -60 -5 0 -12 -9 -15 -20 -3
-11 -14 -20 -24 -20 -10 0 -27 -11 -37 -25 -10 -14 -25 -25 -32 -25 -7 0 -23
-11 -36 -25 -13 -14 -28 -25 -35 -25 -6 0 -11 -4 -11 -10 0 -5 -9 -10 -19 -10
-11 0 -26 -7 -35 -15 -8 -8 -19 -15 -25 -15 -6 0 -11 -4 -11 -10 0 -5 -5 -10
-11 -10 -6 0 -17 -7 -25 -15 -9 -8 -24 -15 -35 -15 -10 0 -19 -4 -19 -10 0 -5
-7 -10 -15 -10 -8 0 -15 -4 -15 -10 0 -5 -9 -10 -20 -10 -11 0 -23 -7 -26 -15
-4 -8 -15 -15 -25 -15 -10 0 -19 -4 -19 -10 0 -5 -11 -10 -25 -10 -14 0 -25
-4 -25 -9 0 -5 -11 -12 -25 -15 -14 -4 -25 -11 -25 -16 0 -6 -7 -10 -15 -10
-8 0 -15 -4 -15 -9 0 -4 -19 -11 -42 -14 -24 -3 -44 -11 -46 -16 -2 -6 -15
-11 -28 -11 -13 0 -24 -4 -24 -10 0 -5 -11 -10 -25 -10 -14 0 -25 -4 -25 -9 0
-5 -20 -12 -45 -15 -25 -4 -45 -11 -45 -17 0 -5 -11 -9 -25 -9 -14 0 -25 -4
-25 -10 0 -5 -15 -10 -34 -10 -19 0 -36 -4 -38 -10 -1 -5 -30 -12 -63 -16
l-59 -7 27 27 c15 15 27 31 27 37 0 5 11 21 25 35 14 14 25 31 25 39 0 8 5 15
10 15 6 0 10 9 10 19 0 11 9 22 19 26 12 3 21 19 25 40 4 19 11 35 16 35 6 0
10 11 10 25 0 14 5 25 10 25 6 0 10 5 10 10 0 22 -40 9 -46 -15 -4 -16 -13
-25 -25 -25 -10 0 -19 -4 -19 -9 0 -5 -10 -13 -22 -17 -13 -4 -30 -15 -39 -25
-9 -11 -21 -19 -28 -19 -6 0 -11 -4 -11 -10 0 -5 -9 -10 -20 -10 -11 0 -23 -7
-26 -15 -4 -8 -15 -15 -25 -15 -10 0 -19 -4 -19 -10 0 -5 -11 -10 -24 -10 -14
0 -31 -7 -40 -15 -8 -8 -24 -15 -35 -15 -12 0 -21 -4 -21 -10 0 -5 -11 -10
-25 -10 -14 0 -25 -4 -25 -9 0 -4 -27 -11 -60 -15 -33 -4 -60 -11 -60 -16 0
-6 -31 -10 -70 -10 -40 0 -70 -4 -70 -10 0 -6 -40 -10 -100 -10 -60 0 -100 4
-100 10 0 6 -30 10 -69 10 -42 0 -71 4 -73 11 -2 6 -25 13 -51 16 -26 3 -47
10 -47 14 0 5 -16 9 -35 9 -19 0 -35 5 -35 10 0 6 -9 10 -21 10 -11 0 -27 7
-35 15 -9 8 -24 15 -35 15 -10 0 -19 5 -19 10 0 6 -7 10 -15 10 -8 0 -15 4
-15 10 0 5 -11 12 -25 16 -14 3 -25 10 -25 15 0 5 -9 9 -20 9 -11 0 -20 5 -20
10 0 6 -5 10 -11 10 -7 0 -22 11 -35 25 -13 14 -28 25 -35 25 -6 0 -26 16 -45
35 -32 34 -54 45 -54 26 0 -5 7 -16 15 -25 8 -8 15 -19 15 -25 0 -6 4 -11 9
-11 5 0 12 -20 15 -45 6 -36 11 -45 27 -45 14 0 19 -7 19 -25 0 -14 5 -25 10
-25 6 0 10 -7 10 -15 0 -8 7 -15 15 -15 8 0 15 -9 15 -20 0 -11 5 -20 10 -20
6 0 10 -7 10 -15 0 -8 12 -26 27 -41 l27 -27 -49 5 c-27 4 -51 11 -53 17 -2 6
-19 11 -38 11 -19 0 -34 5 -34 10 0 6 -11 10 -24 10 -13 0 -26 5 -28 10 -2 6
-27 13 -56 17 -28 3 -52 10 -52 14 0 5 -7 9 -15 9 -8 0 -15 5 -15 10 0 6 -11
10 -25 10 -14 0 -25 4 -25 9 0 5 -16 12 -35 15 -19 4 -35 11 -35 16 0 6 -11
10 -25 10 -14 0 -25 4 -25 9 0 5 -16 12 -35 15 -19 4 -35 11 -35 16 0 6 -9 10
-20 10 -11 0 -20 5 -20 10 0 6 -11 10 -24 10 -13 0 -26 7 -30 15 -3 8 -15 15
-26 15 -11 0 -20 5 -20 10 0 6 -5 10 -11 10 -6 0 -17 7 -25 15 -9 8 -24 15
-35 15 -10 0 -19 5 -19 10 0 6 -7 10 -15 10 -8 0 -15 5 -15 10 0 6 -7 10 -15
10 -8 0 -15 7 -15 15 0 8 -9 15 -20 15 -11 0 -20 5 -20 10 0 6 -5 10 -10 10
-10 0 -22 8 -55 37 -7 7 -18 13 -24 13 -6 0 -11 5 -11 10 0 6 -7 10 -15 10 -9
0 -26 11 -39 25 -13 14 -28 25 -35 25 -6 0 -11 7 -11 15 0 8 -8 15 -18 15 -10
0 -24 10 -32 21 -8 12 -20 27 -27 33 -25 23 -42 36 -48 36 -7 0 -30 19 -48 38
-7 7 -24 26 -39 41 -16 16 -28 35 -28 42 0 8 -10 21 -21 29 -12 8 -27 21 -33
28 -6 7 -17 19 -23 27 -7 7 -13 16 -13 20 0 6 -10 19 -37 50 -7 7 -13 18 -13
24 0 6 -4 11 -10 11 -5 0 -10 5 -10 10 0 10 -8 22 -37 55 -7 7 -13 18 -13 24
0 6 -4 11 -10 11 -5 0 -10 9 -10 20 0 11 -7 23 -15 26 -9 4 -15 19 -15 35 0
16 -4 29 -10 29 -5 0 -10 11 -10 25 0 14 -4 25 -9 25 -5 0 -11 18 -15 40 -3
22 -11 40 -16 40 -6 0 -10 25 -10 55 0 30 -4 55 -10 55 -6 0 -10 38 -10 95 0
57 4 95 10 95 6 0 10 18 10 39 0 22 5 41 13 44 6 2 9 8 5 12 -8 9 -38 -18 -38
-34 0 -6 -7 -11 -15 -11 -8 0 -15 -9 -15 -19 0 -11 -9 -23 -20 -26 -11 -3 -20
-15 -20 -25 0 -10 -7 -25 -15 -34 -8 -8 -15 -19 -15 -25 0 -6 -4 -11 -10 -11
-5 0 -10 -9 -10 -19 0 -10 -7 -21 -15 -25 -8 -3 -15 -17 -15 -31 0 -14 -4 -25
-10 -25 -6 0 -10 27 -10 60 0 33 -4 60 -10 60 -6 0 -10 68 -10 185 0 117 4
185 10 185 6 0 10 42 10 105 0 58 4 105 9 105 4 0 11 41 13 92 4 54 10 94 17
96 6 2 11 24 11 48 0 24 5 44 10 44 6 0 10 18 10 40 0 22 4 40 10 40 5 0 12
27 16 60 4 33 11 60 15 60 5 0 9 11 9 25 0 14 5 25 10 25 6 0 10 14 10 31 0
17 7 37 15 45 8 9 15 26 15 40 0 13 5 24 10 24 6 0 10 11 10 25 0 14 4 25 9
25 5 0 12 16 15 35 4 19 11 35 16 35 6 0 10 11 10 25 0 14 5 25 10 25 6 0 10
9 10 19 0 10 7 21 15 25 9 3 15 18 15 36 0 16 5 30 10 30 6 0 10 7 10 15 0 8
4 15 10 15 5 0 12 11 16 25 3 14 10 25 15 25 5 0 9 9 9 20 0 11 5 20 10 20 6
0 10 9 10 20 0 12 11 31 25 44 14 13 25 33 25 45 0 11 4 21 10 21 5 0 12 11
16 25 3 14 10 25 15 25 5 0 9 8 9 18 0 9 11 26 25 36 14 10 25 27 25 38 0 10
11 30 25 44 14 14 25 31 25 39 0 8 5 15 10 15 6 0 10 9 10 20 0 13 7 20 19 20
12 0 21 9 25 25 4 14 11 25 16 25 6 0 10 7 10 15 0 8 7 15 15 15 8 0 15 8 15
18 0 10 10 24 21 32 12 8 27 21 33 28 6 7 17 19 24 27 6 7 12 16 12 20 0 7 18
30 38 48 7 7 24 22 37 35 13 12 29 22 35 22 5 0 10 7 10 15 0 8 6 15 13 15 7
0 19 9 27 20 8 11 22 20 31 20 10 0 20 11 23 25 4 15 13 25 25 25 10 0 27 11
37 25 10 14 25 25 32 25 7 0 23 11 36 25 13 14 30 25 39 25 8 0 17 7 21 15 3
8 14 15 25 15 11 0 22 9 26 20 3 11 15 20 26 20 10 0 19 4 19 9 0 5 11 12 25
15 14 4 25 11 25 16 0 6 7 10 15 10 8 0 15 5 15 10 0 6 9 10 19 10 11 0 26 7
35 15 8 8 24 15 35 15 12 0 21 5 21 10 0 6 11 10 25 10 14 0 25 4 25 10 0 5
16 12 35 16 19 3 35 10 35 15 0 5 11 9 25 9 14 0 25 5 25 10 0 6 9 10 21 10
11 0 27 7 35 15 9 8 26 15 40 15 13 0 24 5 24 10 0 6 7 10 15 10 8 0 15 4 15
10 0 5 11 12 25 16 14 3 25 10 25 15 0 5 8 9 18 9 9 0 26 11 36 25 10 14 27
25 37 25 12 0 21 10 25 25 3 14 13 25 21 25 17 0 53 37 53 54 0 7 9 18 20 26
11 8 20 18 20 23 0 7 9 20 38 52 6 7 12 18 12 24 0 6 5 11 10 11 6 0 10 9 10
20 0 11 7 23 15 26 8 4 15 15 15 25 0 10 5 19 10 19 6 0 10 15 10 34 0 19 5
36 12 38 7 3 14 32 16 76 2 40 6 72 9 72 2 0 22 -17 43 -37z m-1832 -121 c2
-7 21 -12 43 -12 21 0 39 -4 39 -9 0 -5 20 -12 45 -15 25 -4 45 -11 45 -17 0
-5 11 -9 25 -9 14 0 25 -4 25 -10 0 -5 11 -10 25 -10 14 0 25 -4 25 -10 0 -5
9 -10 20 -10 11 0 23 -7 26 -15 4 -8 15 -15 25 -15 10 0 19 -4 19 -9 0 -5 11
-12 25 -15 14 -4 25 -11 25 -16 0 -6 5 -10 11 -10 7 0 19 -8 28 -19 9 -10 26
-21 39 -25 12 -4 22 -12 22 -17 0 -5 9 -9 19 -9 11 0 23 -9 27 -22 7 -22 28
-48 39 -48 16 0 85 -69 85 -85 0 -8 7 -15 16 -15 17 0 44 -23 44 -39 0 -5 7
-16 15 -25 14 -14 14 -17 -5 -36 -11 -11 -27 -20 -35 -20 -8 0 -15 -4 -15 -10
0 -5 -7 -10 -15 -10 -8 0 -15 -7 -15 -15 0 -10 -10 -15 -29 -15 -21 0 -32 -6
-36 -20 -3 -11 -15 -20 -26 -20 -10 0 -19 -7 -19 -15 0 -9 -6 -12 -15 -9 -8 4
-15 1 -15 -6 0 -15 -38 -50 -54 -50 -7 0 -18 -9 -25 -19 -14 -18 -15 -18 -37
5 -13 13 -24 28 -24 34 0 5 -4 10 -10 10 -5 0 -10 6 -10 14 0 8 -13 28 -30 46
-16 18 -30 38 -30 46 0 8 -7 14 -16 14 -18 0 -44 23 -44 39 0 6 -6 11 -13 11
-7 0 -21 11 -31 25 -10 14 -26 25 -35 25 -9 0 -23 9 -31 20 -8 11 -18 20 -23
20 -5 0 -15 7 -23 15 -9 8 -26 15 -40 15 -13 0 -24 5 -24 10 0 6 -11 10 -24
10 -13 0 -26 6 -28 13 -4 9 -55 12 -213 12 -158 0 -209 -3 -212 -12 -3 -7 -16
-13 -29 -13 -13 0 -24 -4 -24 -10 0 -5 -11 -10 -24 -10 -14 0 -31 -7 -40 -15
-8 -8 -24 -15 -35 -15 -12 0 -21 -4 -21 -10 0 -6 27 -10 60 -10 33 0 60 -4 60
-10 0 -5 22 -10 49 -10 31 0 55 -6 65 -15 8 -8 28 -15 45 -15 17 0 31 -4 31
-9 0 -5 11 -12 25 -15 14 -4 25 -11 25 -16 0 -6 9 -10 20 -10 12 0 32 -11 46
-25 14 -14 31 -25 39 -25 8 0 15 -4 15 -10 0 -6 -27 -10 -60 -10 -33 0 -60 -4
-60 -10 0 -5 -22 -10 -49 -10 -27 0 -51 -5 -53 -10 -2 -6 -27 -13 -56 -17 -28
-3 -52 -10 -52 -14 0 -5 -7 -9 -15 -9 -8 0 -15 -4 -15 -9 0 -5 -10 -13 -22
-17 -13 -4 -30 -15 -39 -25 -9 -11 -19 -19 -23 -19 -8 0 -22 -12 -71 -57 -39
-36 -42 -43 -20 -43 8 0 15 -4 15 -10 0 -5 14 -10 30 -10 17 0 30 -4 30 -9 0
-5 23 -12 50 -16 28 -4 50 -11 50 -16 0 -5 7 -9 15 -9 32 0 13 -20 -25 -26
-22 -4 -40 -10 -40 -15 0 -5 -11 -9 -25 -9 -14 0 -25 -4 -25 -10 0 -5 -9 -10
-20 -10 -11 0 -20 -4 -20 -10 0 -5 -11 -12 -25 -16 -14 -3 -25 -10 -25 -15 0
-5 -7 -9 -15 -9 -8 0 -15 -7 -15 -15 0 -8 -7 -15 -16 -15 -16 0 -54 -36 -54
-51 0 -4 -9 -10 -19 -14 -11 -3 -23 -15 -26 -25 -3 -10 -15 -22 -26 -25 -10
-4 -19 -13 -19 -21 0 -9 -7 -22 -15 -30 -8 -9 -15 -22 -15 -30 0 -11 23 -14
120 -14 73 0 120 -4 120 -10 0 -5 11 -10 25 -10 14 0 25 -4 25 -10 0 -5 15
-10 33 -10 17 0 56 -3 85 -6 43 -6 52 -10 52 -26 0 -11 -6 -26 -12 -33 -30
-33 -38 -45 -38 -55 0 -5 -4 -10 -10 -10 -5 0 -10 -9 -10 -19 0 -10 -7 -21
-15 -25 -9 -3 -15 -18 -15 -36 0 -16 -4 -30 -10 -30 -5 0 -10 -11 -10 -24 0
-13 -6 -26 -12 -29 -10 -3 -13 -54 -13 -210 0 -113 3 -209 7 -213 5 -4 16 3
27 14 10 12 22 22 25 22 4 0 14 7 22 15 9 8 22 15 30 15 18 0 18 -25 -1 -44
-8 -8 -15 -19 -15 -25 0 -6 -4 -11 -10 -11 -5 0 -10 -13 -10 -29 0 -16 -6 -31
-15 -35 -8 -3 -15 -17 -15 -31 0 -14 -4 -25 -10 -25 -5 0 -10 -13 -10 -29 0
-16 -5 -31 -11 -33 -6 -2 -13 -25 -16 -51 -3 -26 -10 -47 -14 -47 -5 0 -9 -16
-9 -35 0 -19 -4 -35 -10 -35 -5 0 -10 -7 -10 -15 0 -9 -9 -15 -25 -15 -14 0
-25 -4 -25 -10 0 -5 -7 -10 -15 -10 -8 0 -15 -4 -15 -10 0 -5 -9 -10 -20 -10
-11 0 -20 -7 -20 -15 0 -9 -9 -15 -25 -15 -14 0 -25 -4 -25 -10 0 -5 -7 -10
-15 -10 -8 0 -15 -7 -15 -15 0 -8 -3 -15 -6 -15 -13 0 -34 30 -34 49 0 12 -4
21 -10 21 -5 0 -13 18 -16 40 -4 22 -10 40 -15 40 -15 0 -11 347 4 353 7 3 4
6 -6 6 -22 1 -177 -151 -177 -173 0 -8 -9 -17 -19 -21 -11 -3 -23 -15 -26 -26
-4 -10 -11 -19 -16 -19 -5 0 -9 -7 -9 -15 0 -8 -7 -15 -15 -15 -8 0 -15 7 -15
15 0 8 -4 15 -10 15 -5 0 -10 16 -10 35 0 19 -4 35 -10 35 -5 0 -10 11 -10 25
0 14 -4 25 -10 25 -6 0 -10 57 -10 150 0 93 4 150 10 150 6 0 10 11 10 25 0
14 5 25 10 25 6 0 10 16 10 35 0 19 5 35 10 35 6 0 10 11 10 25 0 14 7 28 15
31 9 4 15 19 15 35 0 16 4 29 9 29 5 0 12 11 15 25 4 14 11 25 16 25 6 0 10
10 10 21 0 12 8 29 19 38 10 9 21 26 25 38 4 12 16 25 27 28 10 4 19 15 19 26
0 10 7 19 15 19 8 0 15 5 15 10 0 17 -25 11 -40 -10 -8 -11 -18 -20 -23 -20
-8 0 -23 -11 -61 -46 -12 -12 -32 -25 -44 -28 -12 -4 -22 -12 -22 -17 0 -5 -7
-9 -15 -9 -8 0 -15 -9 -15 -19 0 -11 -9 -22 -19 -26 -11 -3 -23 -15 -26 -26
-4 -10 -10 -19 -14 -19 -15 0 -49 -35 -52 -55 -3 -12 -14 -21 -27 -23 -14 -2
-22 -10 -22 -23 0 -18 -2 -19 -15 -5 -8 8 -15 32 -15 55 0 23 -4 41 -10 41 -5
0 -10 11 -10 25 0 14 -4 25 -10 25 -6 0 -10 55 -10 145 0 90 4 145 10 145 6 0
10 7 10 15 0 8 5 15 10 15 6 0 10 20 10 44 0 24 5 46 11 48 5 2 13 22 16 46 3
23 10 42 14 42 5 0 9 7 9 15 0 8 4 15 9 15 5 0 13 15 17 32 3 18 15 40 25 49
11 9 19 21 19 28 0 6 5 11 10 11 6 0 10 7 10 15 0 8 15 30 34 48 18 19 37 43
40 55 4 12 16 24 27 27 10 4 19 10 19 15 0 8 10 19 62 67 7 7 18 18 25 25 18
19 41 38 48 38 8 0 65 56 65 64 0 3 -7 6 -15 6 -8 0 -15 -4 -15 -10 0 -5 -27
-12 -60 -16 -33 -4 -60 -11 -60 -15 0 -5 -11 -9 -25 -9 -14 0 -25 -4 -25 -10
0 -5 -9 -10 -21 -10 -11 0 -27 -7 -35 -15 -9 -8 -24 -15 -35 -15 -10 0 -19 -4
-19 -10 0 -5 -7 -10 -15 -10 -8 0 -15 -4 -15 -10 0 -5 -9 -10 -20 -10 -10 0
-23 -8 -29 -17 -5 -10 -13 -14 -17 -10 -5 5 -4 11 2 15 6 4 14 23 18 42 3 20
15 42 26 50 11 8 20 20 20 27 0 7 4 13 9 13 5 0 12 16 15 35 5 26 12 35 26 35
13 0 20 7 20 20 0 11 5 20 10 20 6 0 10 7 10 15 0 8 5 15 11 15 13 0 39 25 39
39 0 5 11 20 25 33 31 29 38 36 70 71 14 15 31 27 36 27 14 0 39 26 39 39 0 6
7 11 15 11 8 0 15 5 15 10 0 6 9 10 20 10 11 0 20 5 20 10 0 6 7 10 15 10 8 0
15 7 15 15 0 8 9 15 20 15 11 0 20 5 20 10 0 6 5 10 11 10 6 0 17 7 25 15 9 8
26 15 40 15 13 0 24 5 24 10 0 6 7 10 15 10 8 0 15 5 15 10 0 6 11 10 25 10
14 0 25 4 25 9 0 6 20 13 45 17 25 3 45 10 45 15 0 5 20 9 45 9 25 0 45 4 45
9 0 16 47 19 264 17 156 -1 211 -5 214 -14z m4550 1 c2 -8 20 -13 43 -13 21 0
39 -4 39 -10 0 -5 15 -10 34 -10 19 0 41 -7 50 -15 8 -8 24 -15 35 -15 12 0
21 -4 21 -10 0 -5 11 -10 25 -10 14 0 25 -4 25 -10 0 -5 9 -10 20 -10 11 0 23
-7 26 -15 4 -8 15 -15 26 -15 11 0 26 -6 33 -12 32 -29 45 -38 52 -38 5 0 15
-9 23 -20 8 -11 20 -20 27 -20 7 0 23 -11 37 -25 14 -14 30 -25 36 -25 5 0 10
-7 10 -15 0 -8 9 -15 19 -15 11 0 23 -9 26 -20 3 -11 10 -20 15 -20 13 0 60
-49 60 -61 0 -14 26 -39 39 -39 6 0 11 -7 11 -15 0 -8 5 -15 10 -15 6 0 10 -9
10 -20 0 -13 7 -20 20 -20 14 0 21 -9 26 -35 3 -19 10 -35 15 -35 5 0 9 -6 9
-13 0 -7 9 -19 20 -27 11 -8 23 -30 26 -50 4 -19 12 -38 18 -42 6 -4 7 -10 2
-15 -4 -4 -12 0 -17 10 -6 9 -17 17 -26 17 -9 0 -23 8 -32 19 -9 10 -26 21
-38 25 -13 4 -23 12 -23 17 0 5 -11 9 -25 9 -14 0 -25 5 -25 10 0 6 -11 10
-25 10 -14 0 -25 4 -25 9 0 4 -27 11 -60 15 -33 4 -60 11 -60 16 0 6 -12 10
-26 10 -30 0 -28 -23 2 -29 19 -3 54 -37 54 -52 0 -4 10 -11 22 -15 23 -7 48
-28 48 -39 0 -8 27 -35 35 -35 8 0 35 -27 35 -35 0 -6 10 -19 38 -50 6 -7 12
-18 12 -24 0 -6 8 -11 19 -11 14 0 21 -10 25 -35 4 -19 11 -35 16 -35 6 0 10
-5 10 -10 0 -6 11 -22 25 -36 14 -14 25 -35 25 -47 0 -13 9 -29 19 -36 13 -9
22 -32 26 -63 4 -26 11 -48 16 -48 5 0 9 -16 9 -35 0 -19 5 -35 10 -35 6 0 10
-11 10 -25 0 -14 5 -25 10 -25 6 0 10 -62 10 -165 0 -103 -4 -165 -10 -165 -5
0 -10 -11 -10 -25 0 -14 -4 -25 -10 -25 -5 0 -10 -16 -10 -35 0 -24 -5 -35
-15 -35 -8 0 -15 9 -15 19 0 11 -9 23 -20 26 -12 4 -23 18 -26 35 -5 21 -13
29 -34 34 -20 3 -29 12 -32 28 -2 15 -11 24 -25 26 -13 2 -23 10 -23 18 0 19
-20 39 -47 48 -12 4 -25 16 -28 27 -4 11 -19 22 -36 26 -16 3 -31 14 -34 24
-4 11 -15 19 -25 19 -10 0 -20 7 -24 15 -3 8 -10 15 -16 15 -10 0 -5 -8 28
-45 6 -7 12 -18 12 -24 0 -6 4 -11 9 -11 5 0 13 -10 17 -22 4 -13 15 -30 25
-39 11 -9 19 -26 19 -38 0 -11 4 -21 10 -21 5 0 12 -11 16 -25 3 -14 10 -25
15 -25 5 0 9 -13 9 -29 0 -16 6 -31 15 -35 8 -3 15 -17 15 -31 0 -14 5 -25 10
-25 6 0 10 -16 10 -35 0 -19 5 -35 10 -35 6 0 10 -11 10 -25 0 -14 5 -25 10
-25 6 0 10 -62 10 -165 0 -103 -4 -165 -10 -165 -5 0 -10 -9 -10 -20 0 -11 -4
-20 -10 -20 -5 0 -10 -11 -10 -25 0 -14 -4 -25 -10 -25 -5 0 -11 -12 -11 -27
-1 -23 -2 -24 -6 -6 -2 12 -13 25 -23 28 -10 3 -22 16 -26 27 -4 12 -31 46
-60 75 -30 29 -54 57 -54 63 0 5 -6 10 -12 10 -7 0 -26 16 -43 35 -16 19 -33
35 -37 35 -5 0 -8 -34 -8 -75 0 -43 4 -75 10 -75 6 0 10 -20 10 -45 0 -25 -4
-45 -10 -45 -6 0 -10 -27 -10 -60 0 -33 -4 -60 -9 -60 -4 0 -11 -21 -14 -47
-3 -26 -10 -49 -16 -51 -6 -2 -11 -15 -11 -28 0 -27 -34 -34 -44 -9 -3 8 -15
15 -26 15 -11 0 -20 5 -20 10 0 6 -5 10 -11 10 -6 0 -17 6 -24 13 -33 29 -45
37 -55 37 -5 0 -10 5 -10 10 0 6 -11 10 -25 10 -20 0 -25 5 -25 25 0 14 -4 25
-10 25 -5 0 -10 16 -10 35 0 19 -4 35 -9 35 -5 0 -11 18 -15 40 -3 22 -11 40
-16 40 -6 0 -10 14 -10 30 0 17 -4 30 -9 30 -5 0 -11 18 -15 40 -3 22 -11 40
-16 40 -6 0 -10 9 -10 20 0 11 -4 20 -10 20 -5 0 -10 9 -10 21 0 11 -7 27 -15
36 -21 20 -15 24 23 17 18 -4 34 -14 37 -25 4 -12 16 -19 31 -19 l25 0 -3 202
c-2 150 -6 202 -15 206 -7 2 -13 15 -13 28 0 13 -4 24 -10 24 -5 0 -10 14 -10
30 0 18 -6 33 -15 36 -8 4 -15 15 -15 25 0 10 -4 19 -10 19 -5 0 -10 5 -10 10
0 10 -8 22 -37 55 -7 7 -13 22 -13 33 0 21 38 32 113 32 20 0 37 5 37 10 0 6
14 10 30 10 17 0 30 5 30 10 0 6 52 10 135 10 83 0 135 4 135 10 0 6 -4 10
-10 10 -5 0 -10 7 -10 15 0 12 -9 23 -62 72 -7 7 -18 18 -25 25 -7 7 -18 18
-25 24 -7 6 -20 21 -28 33 -8 11 -22 21 -32 21 -10 0 -18 7 -18 15 0 8 -7 15
-15 15 -8 0 -15 5 -15 10 0 6 -11 10 -25 10 -16 0 -25 6 -25 15 0 8 -9 15 -20
15 -11 0 -20 5 -20 10 0 6 -11 10 -25 10 -14 0 -25 4 -25 9 0 5 -22 12 -50 16
-27 4 -50 11 -50 16 0 5 7 9 15 9 8 0 15 4 15 9 0 4 19 11 42 14 24 3 44 11
46 16 2 6 19 11 38 11 19 0 34 5 34 10 0 6 7 10 15 10 23 0 18 13 -20 45 -19
17 -35 36 -35 43 0 6 -7 12 -15 12 -8 0 -15 5 -15 10 0 6 -7 10 -16 10 -10 0
-14 5 -10 16 3 9 2 12 -5 9 -19 -13 -59 4 -59 25 0 17 -7 20 -39 20 -22 0 -46
7 -55 15 -9 10 -34 15 -70 15 -31 0 -56 5 -56 10 0 6 -27 10 -60 10 -33 0 -60
4 -60 10 0 6 7 10 15 10 8 0 25 11 39 25 14 14 28 25 31 25 4 0 13 7 21 15 9
8 26 15 40 15 13 0 24 5 24 10 0 6 11 10 24 10 13 0 26 5 28 10 2 6 29 14 61
17 31 3 57 10 57 14 0 5 32 9 70 9 40 0 70 4 70 10 0 6 -9 10 -21 10 -11 0
-27 7 -35 15 -9 8 -26 15 -40 15 -13 0 -24 5 -24 10 0 6 -15 10 -34 10 -19 0
-36 6 -39 13 -3 9 -52 12 -202 12 -150 0 -199 -3 -203 -12 -2 -7 -10 -13 -18
-13 -8 0 -14 -4 -14 -10 0 -5 -14 -10 -30 -10 -18 0 -33 -6 -36 -15 -4 -8 -16
-15 -28 -15 -12 0 -28 -9 -36 -20 -8 -11 -22 -20 -31 -20 -9 0 -25 -11 -35
-25 -10 -14 -24 -25 -31 -25 -7 0 -13 -5 -13 -11 0 -15 -26 -39 -43 -39 -8 0
-18 -11 -21 -25 -4 -14 -11 -25 -16 -25 -6 0 -10 -7 -10 -15 0 -9 -11 -26 -25
-39 -14 -13 -25 -31 -25 -40 0 -18 -23 -46 -37 -46 -5 0 -15 9 -23 20 -8 11
-20 20 -27 20 -7 0 -13 5 -13 11 0 15 -26 39 -43 39 -8 0 -23 11 -33 25 -10
14 -24 25 -31 25 -7 0 -13 5 -13 10 0 6 -13 10 -30 10 -20 0 -30 5 -30 15 0 8
-7 15 -15 15 -8 0 -15 5 -15 10 0 6 -7 10 -15 10 -8 0 -24 9 -35 20 -19 19
-19 22 -5 36 8 9 15 20 15 25 0 15 26 39 43 39 8 0 18 11 21 25 4 16 13 25 26
25 11 0 20 5 20 11 0 11 25 39 35 39 10 0 35 28 35 39 0 6 5 11 10 11 6 0 22
11 36 25 14 14 30 25 37 25 7 0 19 9 27 20 8 11 20 20 27 20 7 0 13 4 13 10 0
5 11 12 25 16 14 3 25 10 25 15 0 5 9 9 19 9 10 0 21 7 25 15 3 9 18 15 36 15
16 0 30 5 30 10 0 6 11 10 25 10 14 0 25 5 25 10 0 6 9 10 21 10 11 0 27 7 35
15 9 8 29 15 45 15 16 0 29 5 29 10 0 6 20 10 45 10 25 0 45 4 45 9 0 16 45
19 249 17 146 -1 195 -4 199 -13z m-3568 -193 c0 -5 -4 -10 -10 -10 -5 0 -10
5 -10 10 0 6 5 10 10 10 6 0 10 -4 10 -10z m26 -78 c-4 -3 -11 0 -16 8 -15 24
-11 33 6 15 9 -9 13 -19 10 -23z m2064 -42 c0 -5 -4 -10 -10 -10 -5 0 -10 5
-10 10 0 6 5 10 10 10 6 0 10 -4 10 -10z m-2090 -50 c0 -5 -4 -10 -10 -10 -5
0 -10 5 -10 10 0 6 5 10 10 10 6 0 10 -4 10 -10z m2090 0 c0 -5 -4 -10 -10
-10 -5 0 -10 5 -10 10 0 6 5 10 10 10 6 0 10 -4 10 -10z m1720 -2370 c0 -5 -4
-10 -10 -10 -5 0 -10 5 -10 10 0 6 5 10 10 10 6 0 10 -4 10 -10z"/>
<path d="M3864 7686 c-8 -8 -7 -15 0 -22 8 -8 15 -7 22 0 8 8 7 15 0 22 -8 8
-15 7 -22 0z"/>
<path d="M6440 7740 c0 -5 5 -10 10 -10 6 0 10 5 10 10 0 6 -4 10 -10 10 -5 0
-10 -4 -10 -10z"/>
<path d="M6300 7640 c0 -5 5 -10 10 -10 6 0 10 5 10 10 0 6 -4 10 -10 10 -5 0
-10 -4 -10 -10z"/>
<path d="M6200 7470 c0 -5 9 -10 20 -10 11 0 20 5 20 10 0 6 -9 10 -20 10 -11
0 -20 -4 -20 -10z"/>
<path d="M6800 6400 c0 -5 5 -10 10 -10 6 0 10 5 10 10 0 6 -4 10 -10 10 -5 0
-10 -4 -10 -10z"/>
<path d="M3837 6326 c-11 -12 -17 -33 -17 -65 0 -64 23 -91 79 -91 22 0 41 -4
41 -9 0 -4 37 -11 83 -15 45 -4 84 -11 85 -16 5 -13 72 -13 72 -1 0 5 11 12
25 15 23 6 25 11 25 61 0 44 -3 55 -19 60 -11 3 -23 15 -26 26 -4 10 -15 19
-25 19 -10 0 -20 5 -22 11 -2 7 -57 13 -144 16 -123 5 -142 4 -157 -11z"/>
<path d="M6153 6333 c-18 -2 -33 -8 -33 -14 0 -5 -13 -9 -29 -9 -23 0 -30 -5
-33 -22 -2 -15 -11 -24 -25 -26 -21 -3 -23 -9 -23 -58 0 -49 2 -54 25 -60 14
-3 25 -10 25 -15 0 -13 68 -11 72 2 2 5 38 13 81 16 42 3 77 10 77 14 0 5 27
9 60 9 54 0 60 2 60 20 0 11 7 23 15 26 16 7 22 74 6 74 -5 0 -11 10 -13 23
-3 21 -7 22 -118 23 -63 1 -130 -1 -147 -3z"/>
<path d="M7090 5960 c0 -5 5 -10 10 -10 6 0 10 5 10 10 0 6 -4 10 -10 10 -5 0
-10 -4 -10 -10z"/>
<path d="M5000 5940 c0 -5 -22 -10 -50 -10 -27 0 -50 -4 -50 -9 0 -5 -20 -12
-45 -15 -25 -4 -45 -11 -45 -17 0 -5 -7 -9 -15 -9 -8 0 -15 -4 -15 -9 0 -5
-10 -13 -21 -16 -29 -9 -119 -99 -119 -119 0 -8 -9 -17 -19 -21 -14 -4 -22
-19 -27 -51 -3 -24 -10 -44 -15 -44 -5 0 -9 -15 -9 -34 0 -19 -5 -36 -11 -38
-7 -2 -14 -42 -17 -101 -2 -53 -9 -97 -13 -97 -5 0 -9 -36 -9 -80 0 -47 -4
-80 -10 -80 -5 0 -10 -18 -10 -39 0 -22 -5 -41 -11 -43 -7 -2 -11 -78 -12
-235 -2 -228 -2 -231 21 -251 12 -11 22 -29 22 -41 0 -11 4 -21 9 -21 5 0 13
-10 17 -22 4 -13 15 -30 24 -38 10 -8 19 -24 21 -35 3 -11 13 -21 23 -23 25
-5 46 -26 46 -46 0 -9 13 -18 35 -22 20 -3 37 -13 40 -24 5 -17 44 -30 91 -30
13 0 24 -4 24 -10 0 -6 100 -10 280 -10 156 0 280 4 280 9 0 5 21 12 46 16 29
4 56 16 71 31 13 13 28 24 34 24 16 0 109 97 109 114 0 9 7 16 15 16 8 0 15 7
15 15 0 8 5 15 10 15 6 0 10 10 10 23 0 12 9 29 20 37 14 10 21 31 26 72 4 32
11 58 15 58 5 0 9 34 9 75 0 41 -4 75 -9 75 -5 0 -12 70 -16 155 -4 85 -11
155 -16 155 -5 0 -9 20 -9 45 0 25 -4 45 -10 45 -6 0 -10 30 -10 70 0 39 -4
70 -9 70 -4 0 -11 39 -14 87 -3 50 -10 89 -16 91 -6 2 -11 12 -11 23 0 10 -4
19 -9 19 -5 0 -11 17 -14 38 -4 21 -15 44 -27 52 -11 8 -20 22 -20 32 0 9 -10
20 -22 24 -28 9 -48 28 -48 48 0 9 -13 18 -35 22 -25 4 -35 12 -35 24 0 14
-11 20 -50 25 -27 4 -50 11 -50 16 0 5 -22 9 -50 9 -27 0 -50 5 -50 10 0 6
-50 10 -130 10 -80 0 -130 -4 -130 -10z m304 -235 c8 -8 22 -15 32 -15 9 0 27
-11 40 -25 13 -14 30 -25 39 -25 8 0 15 -9 15 -20 0 -11 7 -20 15 -20 9 0 15
-9 15 -25 0 -14 5 -25 10 -25 6 0 10 -11 10 -25 0 -14 -4 -25 -10 -25 -5 0
-10 5 -10 10 0 6 -7 10 -15 10 -8 0 -15 7 -15 15 0 9 -9 15 -25 15 -14 0 -25
5 -25 10 0 6 -9 10 -20 10 -11 0 -20 4 -20 10 0 5 -18 13 -40 16 -22 4 -40 10
-40 15 0 5 -31 9 -70 9 -40 0 -70 4 -70 10 0 6 -16 10 -35 10 -19 0 -35 -4
-35 -10 0 -5 11 -10 25 -10 14 0 25 -4 25 -10 0 -5 9 -10 20 -10 11 0 23 -7
26 -15 4 -8 15 -15 25 -15 10 0 19 -4 19 -10 0 -5 7 -10 15 -10 8 0 15 -5 15
-10 0 -14 46 -60 60 -60 5 0 10 -6 10 -14 0 -8 6 -16 13 -19 7 -2 8 -8 3 -13
-5 -5 -11 -4 -13 4 -3 6 -20 12 -39 12 -19 0 -34 5 -34 10 0 6 -32 10 -75 10
-43 0 -75 -4 -75 -10 0 -5 -11 -10 -25 -10 -14 0 -25 -4 -25 -10 0 -5 -9 -10
-20 -10 -11 0 -20 -7 -20 -15 0 -8 -7 -15 -15 -15 -8 0 -15 -9 -15 -20 0 -11
-4 -20 -10 -20 -5 0 -10 -11 -10 -24 0 -13 -5 -26 -12 -28 -7 -3 -14 -32 -16
-76 -2 -40 -8 -72 -13 -72 -5 0 -9 -25 -9 -55 0 -30 -4 -55 -9 -55 -5 0 -12
-13 -16 -30 -4 -16 -11 -30 -16 -30 -5 0 -9 -9 -9 -20 0 -11 -4 -20 -10 -20
-5 0 -10 -15 -10 -34 0 -19 -5 -36 -12 -38 -7 -3 -14 -32 -16 -76 -2 -40 -8
-72 -13 -72 -5 0 -9 7 -9 15 0 8 -4 15 -9 15 -6 0 -13 20 -17 45 -3 25 -10 45
-15 45 -5 0 -9 59 -9 130 0 72 4 130 8 130 5 0 12 55 15 122 4 70 11 124 17
126 5 2 10 34 10 73 0 39 4 69 10 69 6 0 10 18 10 41 0 36 6 47 55 95 30 30
63 54 75 54 11 0 20 4 20 9 0 15 34 18 202 20 127 1 159 -2 172 -14z"/>
<path d="M3870 5890 c0 -5 -9 -10 -20 -10 -11 0 -20 -4 -20 -9 0 -5 -18 -11
-40 -15 -31 -5 -40 -11 -40 -26 0 -13 -7 -20 -20 -20 -11 0 -20 -4 -20 -10 0
-5 -11 -12 -25 -16 -16 -4 -25 -13 -25 -25 0 -10 -4 -19 -10 -19 -5 0 -12 -16
-16 -35 -3 -19 -10 -35 -15 -35 -5 0 -9 -7 -9 -15 0 -8 -4 -15 -10 -15 -5 0
-10 -16 -10 -35 0 -19 -4 -35 -10 -35 -6 0 -10 -30 -10 -70 0 -40 4 -70 10
-70 6 0 10 -15 10 -34 0 -25 5 -36 19 -41 10 -3 21 -19 25 -35 6 -31 75 -110
96 -110 6 0 21 -11 34 -25 13 -14 33 -25 45 -25 11 0 21 -4 21 -10 0 -5 16
-10 35 -10 19 0 35 -4 35 -10 0 -5 23 -10 50 -10 28 0 50 5 50 10 0 6 16 10
35 10 19 0 35 5 35 10 0 6 9 10 21 10 11 0 27 7 35 15 9 8 24 15 34 15 10 0
21 9 25 19 3 11 15 23 26 26 10 4 19 10 19 15 0 5 11 20 25 34 14 14 25 30 25
36 0 5 4 10 9 10 5 0 12 11 15 25 4 14 11 25 16 25 6 0 10 20 10 45 0 25 5 45
10 45 6 0 10 18 10 40 0 22 -4 40 -10 40 -5 0 -10 20 -10 45 0 25 -4 45 -10
45 -5 0 -12 16 -16 35 -3 19 -10 35 -15 35 -5 0 -9 7 -9 15 0 8 -9 15 -20 15
-12 0 -20 7 -20 18 0 18 -33 52 -50 52 -6 0 -10 9 -10 19 0 16 -9 21 -45 27
-25 3 -45 10 -45 15 0 5 -7 9 -15 9 -8 0 -15 5 -15 10 0 6 -38 10 -95 10 -57
0 -95 -4 -95 -10z m71 -179 c16 -16 29 -34 29 -40 0 -6 5 -11 10 -11 6 0 10
-13 10 -30 0 -16 -4 -30 -10 -30 -5 0 -10 -7 -10 -15 0 -8 -4 -15 -10 -15 -5
0 -12 -11 -16 -25 -5 -19 -13 -25 -35 -25 -16 0 -29 -4 -29 -10 0 -19 -51 -10
-75 13 -13 12 -31 28 -40 35 -10 9 -15 31 -15 72 0 63 15 90 51 90 10 0 19 5
19 10 0 6 21 10 46 10 37 0 51 -5 75 -29z"/>
<path d="M6200 5890 c0 -5 -7 -10 -15 -10 -8 0 -15 -4 -15 -9 0 -5 -19 -11
-42 -15 -38 -6 -78 -36 -78 -58 0 -4 -9 -8 -20 -8 -11 0 -20 -7 -20 -15 0 -8
-11 -25 -25 -39 -14 -14 -25 -30 -25 -36 0 -5 -4 -10 -9 -10 -5 0 -12 -20 -15
-45 -4 -25 -11 -45 -17 -45 -5 0 -9 -40 -9 -90 0 -49 4 -90 9 -90 5 0 12 -19
16 -42 4 -24 16 -50 26 -59 11 -9 19 -21 19 -28 0 -6 4 -11 9 -11 5 0 13 -9
16 -20 3 -11 15 -20 25 -20 11 0 20 -10 24 -25 4 -16 13 -25 25 -25 11 0 26
-7 35 -15 8 -8 24 -15 35 -15 12 0 21 -4 21 -10 0 -5 18 -10 40 -10 22 0 40
-4 40 -10 0 -5 16 -10 35 -10 19 0 35 5 35 10 0 6 20 10 45 10 25 0 45 5 45
10 0 6 11 10 25 10 14 0 25 4 25 9 0 5 10 13 22 17 12 3 32 17 45 30 13 13 30
24 38 24 8 0 15 9 15 20 0 11 4 20 9 20 5 0 13 10 17 23 4 12 15 29 25 38 11
9 19 26 19 38 0 11 5 21 10 21 6 0 10 43 10 110 0 67 -4 110 -10 110 -5 0 -10
10 -10 23 0 12 -9 29 -20 37 -10 8 -22 27 -26 43 -7 31 -56 87 -77 87 -7 0
-21 11 -31 25 -12 16 -29 25 -47 25 -16 0 -29 5 -29 10 0 6 -7 10 -15 10 -8 0
-15 5 -15 10 0 6 -38 10 -95 10 -57 0 -95 -4 -95 -10z m61 -181 c27 -26 31
-38 31 -80 0 -38 -5 -54 -21 -68 -11 -10 -21 -23 -21 -30 0 -6 -11 -11 -25
-11 -14 0 -25 -4 -25 -10 0 -5 -11 -10 -25 -10 -14 0 -25 5 -25 10 0 6 -9 10
-21 10 -22 0 -49 22 -49 39 0 6 -4 11 -10 11 -6 0 -10 26 -10 58 0 48 4 60 21
72 12 8 27 20 33 27 6 7 34 12 63 13 45 0 57 -4 84 -31z"/>
<path d="M3690 4960 c0 -5 -5 -10 -11 -10 -15 0 -35 -22 -43 -48 -4 -12 -11
-22 -16 -22 -15 0 -60 -50 -60 -65 0 -8 -4 -15 -10 -15 -19 0 -10 -30 20 -60
29 -29 90 -43 90 -20 0 6 5 10 11 10 14 0 39 25 39 39 0 6 9 11 20 11 11 0 20
7 20 15 0 8 11 25 25 39 31 31 34 82 6 91 -11 3 -23 15 -26 26 -4 13 -15 19
-36 19 -16 0 -29 -4 -29 -10z"/>
<path d="M6485 4951 c-3 -11 -15 -23 -26 -26 -25 -8 -25 -46 1 -65 11 -8 20
-21 20 -30 0 -8 16 -29 35 -45 19 -17 35 -36 35 -42 0 -7 7 -13 15 -13 8 0 15
-4 15 -10 0 -5 20 -10 44 -10 36 0 46 4 51 20 3 11 11 20 16 20 13 0 11 49 -3
65 -27 30 -38 44 -38 50 0 3 -11 17 -25 31 -14 14 -25 31 -25 39 0 8 -9 15
-20 15 -11 0 -20 5 -20 10 0 6 -15 10 -34 10 -26 0 -36 -5 -41 -19z"/>
<path d="M4201 4563 c-8 -3 -25 -17 -38 -29 -13 -13 -28 -24 -33 -24 -6 0 -10
-20 -10 -45 0 -25 5 -45 10 -45 6 0 10 -9 10 -20 0 -11 5 -20 10 -20 6 0 10
-7 10 -15 0 -8 4 -15 9 -15 5 0 13 -15 17 -32 3 -18 15 -40 25 -49 10 -8 21
-27 24 -42 5 -17 14 -27 26 -27 12 0 19 -7 19 -20 0 -11 5 -20 10 -20 6 0 10
-7 10 -15 0 -8 7 -15 15 -15 8 0 15 -7 15 -15 0 -8 9 -24 20 -35 11 -11 27
-20 35 -20 8 0 15 -9 15 -19 0 -12 9 -23 23 -27 12 -4 29 -15 38 -25 9 -11 30
-22 47 -25 18 -4 34 -14 37 -25 4 -11 15 -19 25 -19 10 0 20 -5 22 -10 2 -6
33 -13 71 -17 37 -3 67 -10 67 -14 0 -5 45 -9 100 -9 55 0 100 4 100 9 0 4 27
11 60 15 33 4 60 11 60 16 0 6 11 10 25 10 18 0 25 5 25 20 0 13 7 20 19 20
11 0 23 -9 26 -20 3 -11 15 -20 26 -20 10 0 19 -4 19 -10 0 -5 27 -12 60 -16
33 -4 60 -11 60 -15 0 -5 45 -9 100 -9 55 0 100 4 100 9 0 4 30 11 67 14 38 4
69 11 71 17 2 5 14 10 26 10 12 0 28 9 36 20 8 11 22 20 31 20 9 0 25 11 35
25 10 14 24 25 31 25 16 0 153 137 153 153 0 7 11 21 25 31 14 11 25 29 25 42
0 17 6 24 20 24 16 0 20 7 20 30 0 18 6 33 15 36 8 4 15 16 15 28 0 12 9 28
20 36 16 11 20 26 20 68 0 73 -28 102 -100 102 -43 0 -55 -4 -80 -30 -17 -17
-30 -41 -30 -55 0 -14 -4 -25 -10 -25 -5 0 -12 -17 -16 -37 -4 -21 -15 -45
-26 -54 -10 -9 -18 -19 -18 -23 0 -8 -16 -28 -52 -65 -16 -16 -28 -36 -28 -45
0 -9 -8 -16 -19 -16 -20 0 -35 -12 -60 -48 -8 -12 -29 -24 -45 -28 -17 -4 -39
-16 -49 -28 -17 -20 -28 -21 -167 -21 -144 0 -149 1 -169 24 -14 16 -35 25
-66 28 -25 3 -45 10 -45 14 0 5 -9 9 -20 9 -11 0 -20 -4 -20 -9 0 -4 -16 -11
-36 -14 -20 -3 -45 -16 -56 -29 -19 -22 -26 -23 -166 -23 -107 0 -146 3 -149
13 -3 6 -11 12 -19 12 -8 0 -14 5 -14 10 0 6 -13 10 -29 10 -18 0 -35 9 -47
25 -10 14 -23 25 -27 25 -5 0 -15 7 -23 15 -9 8 -24 15 -35 15 -12 0 -19 7
-19 20 0 11 -7 23 -15 26 -8 4 -15 13 -15 21 0 9 -11 26 -25 39 -14 13 -25 30
-25 38 0 8 -8 17 -19 21 -13 4 -20 18 -24 48 -3 23 -11 43 -16 45 -6 2 -11 12
-11 23 0 10 -4 19 -9 19 -5 0 -12 11 -15 25 -4 17 -13 25 -29 25 -12 0 -31 2
-42 5 -11 2 -26 1 -34 -2z"/>
<path d="M4000 3600 c0 -5 5 -10 10 -10 6 0 10 5 10 10 0 6 -4 10 -10 10 -5 0
-10 -4 -10 -10z"/>
<path d="M6060 3480 c0 -5 5 -10 10 -10 6 0 10 5 10 10 0 6 -4 10 -10 10 -5 0
-10 -4 -10 -10z"/>
<path d="M4260 3430 c0 -5 5 -10 10 -10 6 0 10 5 10 10 0 6 -4 10 -10 10 -5 0
-10 -4 -10 -10z"/>
<path d="M3450 7400 c0 -5 5 -10 10 -10 6 0 10 5 10 10 0 6 -4 10 -10 10 -5 0
-10 -4 -10 -10z"/>
<path d="M3630 7303 c0 -15 19 -37 26 -31 3 4 -1 14 -10 23 -9 9 -16 13 -16 8z"/>
<path d="M3610 7260 c0 -5 5 -10 10 -10 6 0 10 5 10 10 0 6 -4 10 -10 10 -5 0
-10 -4 -10 -10z"/>
<path d="M7730 7140 c0 -5 5 -10 10 -10 6 0 10 5 10 10 0 6 -4 10 -10 10 -5 0
-10 -4 -10 -10z"/>
<path d="M7800 7070 c0 -5 5 -10 10 -10 6 0 10 5 10 10 0 6 -4 10 -10 10 -5 0
-10 -4 -10 -10z"/>
<path d="M8000 7020 c0 -5 5 -10 10 -10 6 0 10 5 10 10 0 6 -4 10 -10 10 -5 0
-10 -4 -10 -10z"/>
<path d="M8240 5700 c0 -5 5 -10 10 -10 6 0 10 5 10 10 0 6 -4 10 -10 10 -5 0
-10 -4 -10 -10z"/>
</g>
</svg>
